<?xml version="1.0" encoding="utf-8"?>
<!-- Generator: Adobe Illustrator 26.4.1, SVG Export Plug-In . SVG Version: 6.00 Build 0)  -->
<svg version="1.1" id="Layer_1" xmlns="http://www.w3.org/2000/svg" xmlns:xlink="http://www.w3.org/1999/xlink" x="0px" y="0px"
	 viewBox="0 0 1588 74" style="enable-background:new 0 0 1588 74;" xml:space="preserve">
<style type="text/css">
	.st0{fill:#FF334B;stroke:#FF334B;stroke-width:2;}
	.st1{fill-rule:evenodd;clip-rule:evenodd;fill:#F9AC00;}
	.st2{fill:#FFFFFF;}
	.st3{fill:#001133;}
</style>
<path class="st0" d="M10,1h1568c5,0,9,4,9,9v54c0,5-4,9-9,9H10c-5,0-9-4-9-9V10C1,5,5,1,10,1z"/>
<path class="st1" d="M895.4,66.7h-70.5c-13.3,0-24.1-10.8-24.1-24.1V30.5c0-13,10.5-23.6,23.6-23.6h42.7c24.3,0,44,19.7,44,44v0
	C911.1,59.7,904.1,66.7,895.4,66.7z"/>
<g>
	<path class="st2" d="M703.5,39.8c0.7,2,1.8,3,3.4,3v4.7c0,0.1,0,0.1-0.1,0.1h-0.1c-3.8,0-6.4-2.2-7.8-6.6c-0.8-2.2-1.6-3.4-2.4-3.4
		c-1.8,0-3,3.1-3.7,9.4c0,0,0,0,0,0c-2.9-0.2-4.5-0.3-4.7-0.4v0c0.2-1.7,0.4-3.2,0.6-4.5c0.1-0.7,0.2-1.3,0.4-1.9
		c0.1-0.6,0.3-1.2,0.5-1.7c1.6-3.8,3.8-5.7,6.7-5.7h0.3C699.8,32.9,702,35.2,703.5,39.8z"/>
	<path class="st2" d="M715.8,40.5v0.3c0,2.9-2,5-5.8,6.3c-1,0.3-2.1,0.4-3.1,0.4h-0.1c-0.1,0-0.1,0-0.1-0.1v-4.6
		c0-0.1,0.1-0.1,0.2-0.1c1.8,0,3.2-0.6,4.1-1.7c0-0.1,0-0.2,0.1-0.3c0-0.1,0-0.1,0-0.1c0-1.3-0.6-3.7-1.7-7.3c3-1,4.5-1.5,4.6-1.5
		C715.1,35.9,715.8,38.8,715.8,40.5z M709.8,25.8c0.5-0.5,1.2-0.8,2-0.8s1.4,0.3,2,0.8s0.8,1.2,0.8,2c0,0.8-0.3,1.4-0.8,2
		c-0.5,0.5-1.2,0.8-2,0.8s-1.4-0.3-2-0.8c-0.5-0.5-0.8-1.2-0.8-2C708.9,27,709.2,26.3,709.8,25.8z"/>
	<path class="st2" d="M723.8,24.7c-1.4,5.3-2.1,9.6-2.1,12.9c0,1.7,0.2,3,0.6,3.7c0.3,0.6,0.8,1,1.3,1.2c0.6,0.2,1.1,0.3,1.6,0.3
		l0,4.6c0,0.1,0,0.1-0.1,0.1h-0.1c-3.7,0-6.3-1.9-7.7-5.7c-0.3-1.1-0.4-2.4-0.4-4v-0.6c0-3.9,0.7-8.5,2.2-13.8c0,0,0,0,0-0.1
		C722.3,24.2,723.8,24.6,723.8,24.7z"/>
	<path class="st2" d="M733.7,34.7v3.5c-0.1,3.1,1.1,4.7,3.6,4.6v4.7c0,0.1,0,0.1-0.1,0.1H737c-2.3,0-4.2-0.7-5.8-2.2
		c-1.7,1.5-3.7,2.2-6.1,2.2v-0.1v-4.7c1,0,1.8-0.2,2.5-0.7c0.8-0.5,1.2-1.3,1.2-2.6v-4.8c0-0.1,0.1-0.1,0.1-0.1h4.6
		C733.6,34.6,733.7,34.6,733.7,34.7z M726.6,27.5c0.5-0.5,1.2-0.8,2-0.8s1.4,0.3,2,0.8s0.8,1.2,0.8,2c0,0.8-0.3,1.4-0.8,2
		s-1.2,0.8-2,0.8s-1.4-0.3-2-0.8s-0.8-1.2-0.8-2C725.8,28.7,726.1,28,726.6,27.5z M732.5,27.5c0.5-0.5,1.2-0.8,2-0.8s1.4,0.3,2,0.8
		s0.8,1.2,0.8,2c0,0.8-0.3,1.4-0.8,2s-1.2,0.8-2,0.8s-1.4-0.3-2-0.8s-0.8-1.2-0.8-2C731.7,28.7,732,28,732.5,27.5z"/>
	<path class="st2" d="M753.7,47.5c-0.2,0-0.5,0-0.8,0c-0.2,0-0.5,0-0.8-0.1c-0.3,0-0.6,0-0.9,0c-2.6-0.3-4.5-0.7-5.8-1.2l-0.1,0
		c-0.6,0.2-1.3,0.5-2,0.6c-0.7,0.2-1.4,0.3-2.2,0.4l-0.5,0.1c-1.2,0.1-2.4,0.2-3.6,0.2v-4.8c1.6,0,2.4,0,2.5,0c0.2,0,0.4,0,0.6-0.1
		l0.2,0c-0.8-1.3-1.3-2.7-1.3-4.2c0-0.9,0.1-1.9,0.4-2.7c0.5-1.3,1.2-2.3,2.1-3c1.4-1.1,3.1-1.7,5-1.9c1.6,0,2.9,0.3,4.1,1
		c0.9,0.7,1.6,1.4,2,2.3c0.4,0.9,0.6,1.9,0.6,3c0,2-0.8,3.8-2.3,5.4l2.3,0.2h1.2v4.8C754.2,47.6,754,47.6,753.7,47.5z M745.7,40.9
		c0.2-0.1,0.4-0.2,0.6-0.4c0.2-0.1,0.4-0.2,0.6-0.4c1.2-1.2,1.7-2.1,1.7-3c0-0.6-0.3-1-0.9-1.4c-0.3-0.1-0.7-0.2-1-0.2
		c-0.6,0-1.1,0.2-1.5,0.6c-0.8,0.7-1.2,1.4-1.2,2.3c0,0.5,0.2,1,0.6,1.5C744.7,40.3,745.1,40.7,745.7,40.9
		C745.7,40.9,745.7,40.9,745.7,40.9z M744.9,29c-0.5-0.5-0.8-1.2-0.8-2s0.3-1.4,0.8-2s1.2-0.8,2-0.8c0.8,0,1.4,0.3,2,0.8
		s0.8,1.2,0.8,2s-0.3,1.4-0.8,2s-1.2,0.8-2,0.8C746.1,29.8,745.4,29.5,744.9,29z"/>
	<path class="st2" d="M769.7,47.6c-0.8,0-1.5-0.2-2.3-0.6c-0.7-0.4-1.3-0.9-1.6-1.6c-0.7,0.6-1.4,1.1-2.4,1.4
		c-0.9,0.3-1.7,0.5-2.5,0.6c-0.9,0.1-1.8,0.2-2.8,0.1h-3.7l-0.1-4.8h3.9c1.2,0,2.2-0.1,2.8-0.3c0.6-0.2,1-0.5,1.3-0.7
		c0.3-0.2,0.5-0.6,0.5-1c0-0.1,0-0.3-0.1-0.4c0-0.1,0-0.2-0.1-0.3v0c-0.1-0.7-0.3-1.4-0.7-2c-0.2-0.3-0.3-0.7-0.5-1
		c-0.2-0.3-0.4-0.7-0.6-1c-0.2-0.3-0.4-0.6-0.6-0.9c-0.2-0.3-0.4-0.6-0.6-0.9c-0.2-0.3-0.3-0.6-0.5-0.8c-0.2-0.2-0.3-0.5-0.5-0.6
		c-0.1,0-0.2,0.1-0.2,0.1c-0.1,0-0.2,0-0.2,0.1c0,0-0.1,0-0.1,0.1c-0.1,0-0.1,0-0.2,0.1c0,0-0.1,0-0.1,0c0,0-0.1,0-0.1,0.1l-1.6-4.5
		c1.8-0.7,3.4-1.5,4.8-2.5c1.4-1,2.7-2,3.7-3c1.2-1.1,2.3-2.3,3.3-3.5l3.8,2.9c-1.5,1.9-3,3.5-4.5,4.8c-1.5,1.3-2.9,2.3-4.2,3.1
		l2.1,3.2c0.2,0.3,0.3,0.6,0.5,0.8c0.1,0.2,0.3,0.5,0.4,0.8c0.1,0.2,0.2,0.5,0.3,0.7c0.1,0.2,0.2,0.5,0.3,0.7l2.3,5
		c0.2,0.3,0.5,0.6,0.7,0.8c0.2,0.2,0.6,0.3,1,0.3h0.1h2.5v4.8H769.7z M767.3,19.3c-2.2,2.4-3.8,3.9-4.8,4.5
		c-2.3,1.7-4.3,2.9-5.8,3.6h0c0-0.2-0.2-0.7-0.6-1.5c1.9-1,4-2.4,6.3-4.1c2.3-2.1,3.5-3.3,3.5-3.6h0.2
		C766.7,18.8,767.1,19.2,767.3,19.3z"/>
	<path class="st2" d="M797.9,40.9v0.3c0,2.8-1.3,4.8-3.9,5.9c-0.6,0.3-1.4,0.4-2.4,0.4c-2.1,0-3.8-0.6-5.1-1.7
		c-1.3,1.2-2.8,1.7-4.5,1.7c-1.6,0-3-0.6-4.3-1.8c-1.2,1.2-2.7,1.8-4.5,1.8h-0.1v-4.8c1.1,0,1.8-0.3,2-1.1c0.1-0.4,0.2-1,0.3-1.7
		c0-0.7,0.1-1.6,0.1-2.7v-2.4c0-0.1,0-0.1,0.1-0.1h4.6c0.1,0,0.1,0.1,0.1,0.1v2.6c0,2.9,0.3,4.6,1.1,5.1c0.3,0.1,0.6,0.2,0.7,0.2
		c1.2,0,2.4-2.7,3.5-8c2.8,0.7,4.3,1,4.6,1.2l-1.1,5.1c0,1.2,0.8,1.7,2.5,1.7c0.9,0,1.4-0.6,1.4-1.7c-0.1-1.6-0.8-3.7-2.3-6.6
		l4.1-2.4C797,35.7,797.9,38.6,797.9,40.9z M785.8,31.3c-0.5,0.5-1.2,0.8-2,0.8c-0.8,0-1.4-0.3-2-0.8s-0.8-1.2-0.8-2s0.3-1.4,0.8-2
		s1.2-0.8,2-0.8c0.8,0,1.4,0.3,2,0.8c0.5,0.5,0.8,1.2,0.8,2S786.3,30.7,785.8,31.3z M788.7,25.8c-0.5,0.5-1.2,0.8-2,0.8
		s-1.4-0.3-2-0.8c-0.5-0.5-0.8-1.2-0.8-2c0-0.8,0.3-1.4,0.8-2c0.5-0.5,1.2-0.8,2-0.8s1.4,0.3,2,0.8c0.5,0.5,0.8,1.2,0.8,2
		C789.5,24.6,789.2,25.2,788.7,25.8z M791.7,31.3c-0.5,0.5-1.2,0.8-2,0.8c-0.8,0-1.4-0.3-2-0.8c-0.5-0.5-0.8-1.2-0.8-2
		s0.3-1.4,0.8-2c0.5-0.5,1.2-0.8,2-0.8c0.8,0,1.4,0.3,2,0.8c0.5,0.5,0.8,1.2,0.8,2S792.2,30.7,791.7,31.3z"/>
	<path class="st3" d="M832,42.6c0.2,0,0.5,0.1,0.7,0.1c0.2,0,0.5,0.1,0.7,0.1h1.7v4.8h-1.7c-2,0-3.9-0.2-5.6-0.7c0,0,0,0,0,0
		c0,0,0,0-0.1,0c-2.2,1.4-4.9,2.3-8,2.7c-1,0.1-2,0.2-2.9,0.2c-2.3,0-4-0.1-5.2-0.3c-2.2-0.4-4-1-5.4-1.9c-2.2-1.5-3.4-3.4-3.4-5.8
		c0-0.8,0.2-1.6,0.5-2.4c0.8-1.9,2.2-3.7,4.4-5.3l2.1-1.3L812,37c-3,1.8-4.4,3.4-4.4,5c0,0.7,0.5,1.3,1.5,1.8c1.6,0.9,3.9,1.3,7,1.3
		c2.4,0,4.5-0.3,6.2-0.8c-0.1,0-0.2-0.1-0.2-0.2c-0.1-0.1-0.1-0.1-0.2-0.2c-1.1-1.1-1.7-2.5-2-4.1v-0.1c0-0.2,0-0.3,0-0.5
		c0-0.1,0-0.3,0-0.5c0-1.1,0.2-2.1,0.7-3.1c0.6-1.3,1.3-2.2,2.3-2.8c1.4-0.9,3.1-1.5,5-1.5c1.5,0.1,2.8,0.5,3.8,1.1
		c0.8,0.5,1.4,1.2,1.8,2.2c0.4,0.9,0.6,1.8,0.6,2.9C833.8,39.1,833.2,40.9,832,42.6z M824.6,28.5c-0.5-0.5-0.8-1.2-0.8-2
		c0-0.8,0.3-1.4,0.8-2c0.5-0.5,1.2-0.8,2-0.8c0.8,0,1.4,0.3,2,0.8c0.5,0.5,0.8,1.2,0.8,2c0,0.8-0.3,1.4-0.8,2
		c-0.5,0.5-1.2,0.8-2,0.8C825.8,29.3,825.1,29,824.6,28.5z M827.1,41.3c0,0,0.1-0.1,0.1-0.1c1.2-1.6,1.8-2.8,1.8-3.6
		c0-0.3-0.1-0.6-0.2-0.8c-0.3-0.5-0.8-0.7-1.6-0.7c-0.6,0-1.3,0.3-1.9,0.9c-0.5,0.7-0.8,1.2-0.8,1.7c0,1.3,0.8,2.2,2.5,2.8
		C827,41.5,827,41.4,827.1,41.3z"/>
	<path class="st3" d="M843.4,34.7v3.5c0,3.1,1.2,4.6,3.6,4.6v4.7c0,0.1,0,0.1-0.1,0.1h-0.2c-2.3,0-4.2-0.7-5.8-2.2
		c-1.7,1.5-3.7,2.2-6.1,2.2v-0.1v-4.7c2.2,0.1,3.4-1,3.7-3.3v-4.8c0-0.1,0.1-0.1,0.1-0.1h4.6C843.4,34.6,843.4,34.6,843.4,34.7z
		 M836.1,54.4c-0.5-0.5-0.8-1.2-0.8-2c0-0.8,0.3-1.4,0.8-2c0.5-0.5,1.2-0.8,2-0.8c0.8,0,1.4,0.3,2,0.8c0.5,0.5,0.8,1.2,0.8,2
		c0,0.8-0.3,1.4-0.8,2c-0.5,0.5-1.2,0.8-2,0.8C837.3,55.2,836.7,54.9,836.1,54.4z M842.1,54.4c-0.5-0.5-0.8-1.2-0.8-2
		c0-0.8,0.3-1.4,0.8-2c0.5-0.5,1.2-0.8,2-0.8s1.4,0.3,2,0.8c0.5,0.5,0.8,1.2,0.8,2c0,0.8-0.3,1.4-0.8,2c-0.5,0.5-1.2,0.8-2,0.8
		S842.6,54.9,842.1,54.4z"/>
	<path class="st3" d="M863.5,47.5c-0.2,0-0.5,0-0.8,0c-0.2,0-0.5,0-0.8-0.1c-0.3,0-0.6,0-0.9,0c-2.6-0.3-4.5-0.7-5.8-1.2l-0.1,0
		c-0.6,0.2-1.3,0.5-2,0.6c-0.7,0.2-1.4,0.3-2.2,0.4l-0.5,0.1c-1.2,0.1-2.4,0.2-3.6,0.2v-4.8c1.6,0,2.4,0,2.5,0c0.2,0,0.4,0,0.6-0.1
		l0.2,0c-0.8-1.3-1.3-2.7-1.3-4.2c0-0.9,0.1-1.9,0.4-2.7c0.5-1.3,1.2-2.3,2.1-3c1.4-1.1,3.1-1.7,5-1.9c1.6,0,2.9,0.3,4.1,1
		c0.9,0.7,1.6,1.4,2,2.3c0.4,0.9,0.6,1.9,0.6,3c0,2-0.8,3.8-2.3,5.4l2.3,0.2h1.2v4.8C864,47.6,863.7,47.6,863.5,47.5z M855.4,40.9
		c0.2-0.1,0.4-0.2,0.6-0.4c0.2-0.1,0.4-0.2,0.6-0.4c1.2-1.2,1.7-2.1,1.7-3c0-0.6-0.3-1-0.9-1.4c-0.3-0.1-0.7-0.2-1-0.2
		c-0.6,0-1.1,0.2-1.5,0.6c-0.8,0.7-1.2,1.4-1.2,2.3c0,0.5,0.2,1,0.6,1.5C854.5,40.3,854.9,40.7,855.4,40.9
		C855.4,40.9,855.4,40.9,855.4,40.9z M854.6,29c-0.5-0.5-0.8-1.2-0.8-2s0.3-1.4,0.8-2c0.5-0.5,1.2-0.8,2-0.8s1.4,0.3,2,0.8
		c0.5,0.5,0.8,1.2,0.8,2s-0.3,1.4-0.8,2c-0.5,0.5-1.2,0.8-2,0.8S855.1,29.5,854.6,29z"/>
	<path class="st3" d="M881.1,34.9c1.2,1.6,1.7,2.7,1.7,3.4c0,1.1-0.4,2.1-1.2,3.2v0.1c0.5,0.8,1.2,1.2,2.1,1.2h0.2
		c0.1,0,0.2,0.1,0.2,0.2v4.5c0,0.1-0.1,0.1-0.2,0.1c-2.5,0-4.5-1-5.9-3c-4.1,2-8.6,3-13.6,3h-0.2c-0.1,0-0.1,0-0.1-0.1v-4.6
		c0-0.1,0-0.1,0.1-0.1c5.4,0,9.7-1.2,13-3.5c0.4-0.4,0.6-0.6,0.6-0.7c-1.4-2.1-3.2-3.6-5.3-4.3c0,0-0.1,0-0.1,0s-0.1,0-0.1,0H872
		c-0.4,0-0.9,1-1.5,3c-0.1,0.2-0.1,0.5-0.2,0.8c-0.1,0.3-0.1,0.6-0.2,0.9c-0.1,0.3-0.1,0.7-0.2,1c-0.1,0.4-0.1,0.8-0.2,1.2h-0.1
		c-3.1-0.2-4.7-0.5-4.7-0.6v-0.1c0.3-2.9,0.9-5.2,1.7-6.9c1.2-2.8,3-4.2,5.3-4.2h0.3C875,29.4,878,31.3,881.1,34.9z M870.4,22.8
		c0.5-0.5,1.2-0.8,2-0.8s1.4,0.3,2,0.8c0.5,0.5,0.8,1.2,0.8,2s-0.3,1.4-0.8,2c-0.5,0.5-1.2,0.8-2,0.8s-1.4-0.3-2-0.8s-0.8-1.2-0.8-2
		S869.9,23.3,870.4,22.8z"/>
	<path class="st3" d="M883.7,25.6c0.5-0.5,1.2-0.8,2-0.8s1.4,0.3,2,0.8c0.5,0.5,0.8,1.2,0.8,2s-0.3,1.4-0.8,2
		c-0.5,0.5-1.2,0.8-2,0.8s-1.4-0.3-2-0.8c-0.5-0.5-0.8-1.2-0.8-2S883.2,26.1,883.7,25.6z M893,40.5v0.3c0,2.9-2,5-5.8,6.3
		c-1,0.3-2,0.4-3.1,0.4H884c-0.1,0-0.1,0-0.1-0.1v-4.6c0-0.1,0.1-0.1,0.2-0.1c1.8,0,3.1-0.6,4.1-1.7c0-0.1,0-0.2,0.1-0.3
		c0-0.1,0-0.1,0-0.1c0-1.3-0.6-3.7-1.7-7.3c3-1,4.5-1.5,4.6-1.5C892.4,35.8,893,38.7,893,40.5z M889.6,25.6c0.5-0.5,1.2-0.8,2-0.8
		s1.4,0.3,2,0.8c0.5,0.5,0.8,1.2,0.8,2s-0.3,1.4-0.8,2c-0.5,0.5-1.2,0.8-2,0.8s-1.4-0.3-2-0.8c-0.5-0.5-0.8-1.2-0.8-2
		S889.1,26.1,889.6,25.6z"/>
</g>
</svg>
